<svg xmlns="http://www.w3.org/2000/svg" xmlns:xlink="http://www.w3.org/1999/xlink" width="200" zoomAndPan="magnify" viewBox="0 0 150 74.999997" height="100" preserveAspectRatio="xMidYMid meet" version="1.0"><defs><g/><clipPath id="4df5619d5e"><path d="M 7.5 14.351562 L 54 14.351562 L 54 60.851562 L 7.5 60.851562 Z M 7.5 14.351562 " clip-rule="nonzero"/></clipPath></defs><path fill="#3a6cff" d="M 29.160156 55.128906 C 30.355469 53.9375 30.355469 52.003906 29.160156 50.808594 C 27.96875 49.617188 26.035156 49.617188 24.84375 50.808594 C 23.648438 52.003906 23.648438 53.9375 24.84375 55.128906 C 26.035156 56.320312 27.96875 56.320312 29.160156 55.128906 " fill-opacity="1" fill-rule="nonzero"/><g clip-path="url(#4df5619d5e)"><path fill="#3a6cff" d="M 30.644531 14.347656 C 17.859375 14.347656 7.5 24.710938 7.5 37.496094 C 7.5 38.058594 7.519531 38.613281 7.558594 39.167969 C 13.207031 33.742188 21.980469 33.484375 27.925781 38.394531 L 34.90625 31.414062 C 33.894531 29.703125 34.125 27.460938 35.59375 25.992188 C 37.335938 24.25 40.164062 24.25 41.90625 25.992188 C 43.648438 27.734375 43.648438 30.5625 41.90625 32.304688 C 40.4375 33.773438 38.195312 34.003906 36.484375 32.992188 L 29.539062 39.9375 C 34.859375 45.800781 34.828125 54.78125 29.453125 60.613281 C 29.847656 60.632812 30.246094 60.640625 30.644531 60.640625 C 43.429688 60.640625 53.789062 50.277344 53.789062 37.496094 C 53.789062 24.710938 43.429688 14.347656 30.644531 14.347656 " fill-opacity="1" fill-rule="nonzero"/></g><path fill="#3a6cff" d="M 13.273438 39.238281 C 12.078125 40.433594 12.078125 42.367188 13.273438 43.558594 C 14.464844 44.75 16.398438 44.75 17.589844 43.558594 C 18.785156 42.367188 18.785156 40.433594 17.589844 39.238281 C 16.398438 38.046875 14.464844 38.046875 13.273438 39.238281 " fill-opacity="1" fill-rule="nonzero"/><g fill="#ffffff" fill-opacity="1"><g transform="translate(64.750976, 50.29542)"><g><path d="M 16.734375 -25.96875 L 16.734375 -20.765625 L 7.796875 -20.765625 L 7.796875 -15.609375 L 16.359375 -15.609375 L 16.359375 -10.421875 L 7.796875 -10.421875 L 7.796875 -5.1875 L 16.734375 -5.1875 L 16.734375 0 L 1.890625 0 L 1.890625 -25.96875 Z M 16.734375 -25.96875 "/></g></g></g><g fill="#ffffff" fill-opacity="1"><g transform="translate(83.002214, 50.29542)"><g><path d="M 15.703125 -5.34375 C 16.609375 -5.34375 17.484375 -5.476562 18.328125 -5.75 C 19.179688 -6.03125 19.804688 -6.296875 20.203125 -6.546875 L 20.796875 -6.953125 L 23.3125 -1.921875 C 23.226562 -1.859375 23.113281 -1.773438 22.96875 -1.671875 C 22.820312 -1.566406 22.476562 -1.367188 21.9375 -1.078125 C 21.40625 -0.796875 20.835938 -0.550781 20.234375 -0.34375 C 19.628906 -0.132812 18.832031 0.0507812 17.84375 0.21875 C 16.851562 0.382812 15.835938 0.46875 14.796875 0.46875 C 12.378906 0.46875 10.085938 -0.117188 7.921875 -1.296875 C 5.765625 -2.484375 4.023438 -4.113281 2.703125 -6.1875 C 1.378906 -8.269531 0.71875 -10.519531 0.71875 -12.9375 C 0.71875 -14.757812 1.101562 -16.507812 1.875 -18.1875 C 2.65625 -19.863281 3.691406 -21.300781 4.984375 -22.5 C 6.273438 -23.695312 7.78125 -24.648438 9.5 -25.359375 C 11.21875 -26.078125 12.984375 -26.4375 14.796875 -26.4375 C 16.472656 -26.4375 18.019531 -26.234375 19.4375 -25.828125 C 20.851562 -25.429688 21.851562 -25.035156 22.4375 -24.640625 L 23.3125 -24.046875 L 20.796875 -19 C 20.648438 -19.132812 20.429688 -19.289062 20.140625 -19.46875 C 19.847656 -19.644531 19.257812 -19.878906 18.375 -20.171875 C 17.5 -20.460938 16.609375 -20.609375 15.703125 -20.609375 C 14.273438 -20.609375 12.992188 -20.378906 11.859375 -19.921875 C 10.734375 -19.460938 9.835938 -18.851562 9.171875 -18.09375 C 8.515625 -17.34375 8.007812 -16.53125 7.65625 -15.65625 C 7.3125 -14.78125 7.140625 -13.894531 7.140625 -13 C 7.140625 -11.019531 7.878906 -9.25 9.359375 -7.6875 C 10.835938 -6.125 12.953125 -5.34375 15.703125 -5.34375 Z M 15.703125 -5.34375 "/></g></g></g><g fill="#ffffff" fill-opacity="1"><g transform="translate(106.697357, 50.29542)"><g><path d="M 15.078125 -25.96875 L 25.546875 0 L 19.203125 0 L 17.28125 -5.1875 L 7.390625 -5.1875 L 5.46875 0 L -0.875 0 L 9.59375 -25.96875 Z M 15.265625 -10.390625 L 12.375 -17.9375 L 12.296875 -17.9375 L 9.40625 -10.390625 Z M 15.265625 -10.390625 "/></g></g></g><g fill="#ffffff" fill-opacity="1"><g transform="translate(131.367996, 50.29542)"><g><path d="M 7.796875 -25.96875 L 7.796875 0 L 1.890625 0 L 1.890625 -25.96875 Z M 7.796875 -25.96875 "/></g></g></g></svg>