<svg xmlns="http://www.w3.org/2000/svg" xmlns:xlink="http://www.w3.org/1999/xlink" width="500" zoomAndPan="magnify" viewBox="0 0 375 374.999991" height="500" preserveAspectRatio="xMidYMid meet" version="1.0"><defs><g/></defs><g fill="#e9e9ea" fill-opacity="1"><g transform="translate(0.0000045, 83.249436)"><g><path d="M 51.296875 -79.546875 L 51.296875 -63.640625 L 23.90625 -63.640625 L 23.90625 -47.828125 L 50.140625 -47.828125 L 50.140625 -31.921875 L 23.90625 -31.921875 L 23.90625 -15.90625 L 51.296875 -15.90625 L 51.296875 0 L 5.78125 0 L 5.78125 -79.546875 Z M 51.296875 -79.546875 "/></g></g></g><g fill="#e9e9ea" fill-opacity="1"><g transform="translate(46.853011, 83.249436)"><g><path d="M 48.109375 -16.390625 C 50.878906 -16.390625 53.566406 -16.804688 56.171875 -17.640625 C 58.773438 -18.484375 60.6875 -19.289062 61.90625 -20.0625 L 63.734375 -21.3125 L 71.453125 -5.875 C 71.191406 -5.6875 70.835938 -5.429688 70.390625 -5.109375 C 69.941406 -4.785156 68.894531 -4.191406 67.25 -3.328125 C 65.613281 -2.460938 63.863281 -1.707031 62 -1.0625 C 60.132812 -0.414062 57.691406 0.160156 54.671875 0.671875 C 51.648438 1.191406 48.53125 1.453125 45.3125 1.453125 C 37.925781 1.453125 30.921875 -0.363281 24.296875 -4 C 17.671875 -7.632812 12.332031 -12.632812 8.28125 -19 C 4.238281 -25.363281 2.21875 -32.238281 2.21875 -39.625 C 2.21875 -45.21875 3.40625 -50.585938 5.78125 -55.734375 C 8.164062 -60.878906 11.332031 -65.28125 15.28125 -68.9375 C 19.238281 -72.601562 23.851562 -75.53125 29.125 -77.71875 C 34.394531 -79.90625 39.789062 -81 45.3125 -81 C 50.457031 -81 55.195312 -80.382812 59.53125 -79.15625 C 63.875 -77.9375 66.945312 -76.71875 68.75 -75.5 L 71.453125 -73.671875 L 63.734375 -58.234375 C 63.285156 -58.617188 62.609375 -59.082031 61.703125 -59.625 C 60.804688 -60.175781 59.007812 -60.898438 56.3125 -61.796875 C 53.613281 -62.703125 50.878906 -63.15625 48.109375 -63.15625 C 43.742188 -63.15625 39.820312 -62.445312 36.34375 -61.03125 C 32.875 -59.613281 30.125 -57.75 28.09375 -55.4375 C 26.070312 -53.125 24.53125 -50.632812 23.46875 -47.96875 C 22.414062 -45.300781 21.890625 -42.585938 21.890625 -39.828125 C 21.890625 -33.785156 24.15625 -28.367188 28.6875 -23.578125 C 33.21875 -18.785156 39.691406 -16.390625 48.109375 -16.390625 Z M 48.109375 -16.390625 "/></g></g></g><g fill="#e9e9ea" fill-opacity="1"><g transform="translate(110.384533, 83.249436)"><g><path d="M 46.1875 -79.546875 L 78.296875 0 L 58.8125 0 L 52.9375 -15.90625 L 22.65625 -15.90625 L 16.78125 0 L -2.703125 0 L 29.40625 -79.546875 Z M 46.765625 -31.8125 L 37.890625 -54.953125 L 37.703125 -54.953125 L 28.828125 -31.8125 Z M 46.765625 -31.8125 "/></g></g></g><g fill="#e9e9ea" fill-opacity="1"><g transform="translate(176.904685, 83.249436)"><g><path d="M 23.90625 -79.546875 L 23.90625 0 L 5.78125 0 L 5.78125 -79.546875 Z M 23.90625 -79.546875 "/></g></g></g></svg>